<?xml version="1.0" encoding="UTF-8"?>
<svg xmlns="http://www.w3.org/2000/svg" id="_圖層_2" data-name="圖層 2" viewBox="0 0 198.72 61.35">
  <defs>
    <style>
      .cls-1 {
        fill: #fff;
      }
    </style>
  </defs>
  <g id="_目錄吧" data-name="目錄吧">
    <g>
      <path class="cls-1" d="M90.16,25l7.39,17.87h-5.62s-1.34-3.33-1.34-3.33l-8.69.02-1.33,3.35h-5.62s7.32-17.89,7.32-17.89l7.91-.02ZM83.48,35.55h5.51s-2.55-6.35-2.55-6.35h-.44s-2.52,6.35-2.52,6.35Z"></path>
      <path class="cls-1" d="M131.78,24.91l7.39,17.87h-5.62s-1.34-3.33-1.34-3.33l-8.69.02-1.33,3.35h-5.62s7.32-17.89,7.32-17.89l7.91-.02ZM125.09,35.46h5.51s-2.55-6.35-2.55-6.35h-.44s-2.52,6.35-2.52,6.35Z"></path>
      <path class="cls-1" d="M111.14,24.95c1.35,0,2.48.18,3.38.53.9.36,1.62.84,2.15,1.45.53.61.91,1.32,1.13,2.13.22.81.34,1.66.34,2.57s-.1,1.73-.32,2.54c-.21.81-.55,1.52-1,2.14-.45.61-1.03,1.1-1.73,1.46-.7.36-1.52.54-2.48.55l-7.54.02v4.51s-5.22.01-5.22.01l-.04-17.88,11.32-.02ZM110.72,34.14c.58,0,1.08-.22,1.47-.65.4-.43.6-1.05.6-1.86s-.2-1.4-.6-1.84c-.4-.43-.89-.65-1.48-.65h-5.65s.01,5.01.01,5.01h5.65Z"></path>
      <path class="cls-1" d="M198.57,24.76v4.19s-11.31.02-11.31.02v2.54s10.98-.02,10.98-.02v4.19s-10.96.02-10.96.02v2.78s11.44-.02,11.44-.02v4.19s-16.66.04-16.66.04l-.04-17.88,16.55-.04Z"></path>
      <g>
        <path class="cls-1" d="M98.71,56.16v-5.12s3.17,0,3.17,0v.71s-2.34,0-2.34,0v1.55s2.02,0,2.02,0v.71s-2.02,0-2.02,0v2.15s-.84,0-.84,0Z"></path>
        <path class="cls-1" d="M105.82,56.25c-.73.02-1.36-.23-1.89-.74-.53-.51-.79-1.15-.78-1.92-.02-.71.23-1.34.75-1.88.52-.54,1.16-.8,1.91-.79.74-.02,1.37.23,1.9.75.53.51.79,1.15.78,1.91.02.72-.23,1.34-.75,1.88-.52.54-1.16.8-1.91.79ZM105.82,55.5c.51,0,.93-.18,1.28-.54.34-.36.52-.82.52-1.38,0-.53-.16-.99-.5-1.36-.34-.37-.78-.55-1.3-.55-.51,0-.93.18-1.27.54-.34.36-.51.82-.51,1.37s.17.99.5,1.36c.33.37.77.55,1.29.55Z"></path>
        <path class="cls-1" d="M112.47,56.23c-.73.02-1.36-.23-1.89-.74-.53-.51-.79-1.15-.78-1.92-.02-.71.23-1.34.75-1.88.52-.54,1.16-.8,1.91-.79.74-.02,1.37.23,1.9.75.53.51.79,1.15.78,1.91.02.72-.23,1.34-.75,1.88-.52.54-1.16.8-1.91.79ZM112.46,55.48c.51,0,.93-.18,1.28-.54.34-.36.52-.82.52-1.38,0-.53-.16-.99-.5-1.36-.34-.37-.78-.55-1.3-.55-.51,0-.93.18-1.27.54-.34.36-.51.82-.51,1.37s.17.99.5,1.36c.33.37.77.55,1.29.55Z"></path>
        <path class="cls-1" d="M117.73,56.12v-4.41s-1.7,0-1.7,0v-.71s4.22,0,4.22,0v.71s-1.69,0-1.69,0v4.41s-.83,0-.83,0Z"></path>
        <path class="cls-1" d="M122.92,56.1l-1.55-5.11h.87s1.13,4.1,1.13,4.1l1.2-4.04h.79s1.21,4,1.21,4l1.1-4.07h.86s-1.54,5.12-1.54,5.12h-.84s-1.21-3.97-1.21-3.97l-1.18,3.97h-.85Z"></path>
        <path class="cls-1" d="M129.88,56.09v-5.12s3.27,0,3.27,0v.71s-2.47,0-2.47,0v1.45s2.2,0,2.2,0v.71s-2.2,0-2.2,0v1.55s2.57,0,2.57,0v.71s-3.38,0-3.38,0Z"></path>
        <path class="cls-1" d="M134.39,56.08l2.04-5.12h.9s2.06,5.11,2.06,5.11h-.9s-.54-1.43-.54-1.43h-2.18s-.54,1.44-.54,1.44h-.85ZM136.03,53.98h1.68s-.85-2.24-.85-2.24l-.83,2.24Z"></path>
        <path class="cls-1" d="M140.71,56.07v-5.12s1.56,0,1.56,0c.56,0,1.01.14,1.33.43.33.28.5.67.5,1.16,0,.31-.08.58-.24.83-.16.25-.38.43-.67.56l1.42,2.14h-.99s-1.21-1.94-1.21-1.94c-.1.01-.22.02-.34.02h-.58s0,1.93,0,1.93h-.81ZM141.51,51.64v1.82s.63,0,.63,0c.77,0,1.15-.31,1.15-.91s-.37-.91-1.11-.91h-.67Z"></path>
        <path class="cls-1" d="M150.45,56.12c-.8.01-1.46-.22-1.98-.7-.52-.48-.78-1.11-.77-1.88-.01-.78.24-1.42.77-1.92.53-.51,1.21-.76,2.05-.75.64,0,1.22.13,1.74.41l-.14.74c-.48-.26-1.03-.39-1.66-.39-.56,0-1.01.17-1.36.52-.35.34-.53.8-.53,1.38s.17,1.04.51,1.37c.34.34.81.5,1.4.5.36,0,.71-.05,1.06-.14v-1.28s-1.08,0-1.08,0v-.7s1.91,0,1.91,0v2.49c-.58.25-1.23.37-1.93.37Z"></path>
        <path class="cls-1" d="M154.03,56.04v-5.12s1.56,0,1.56,0c.56,0,1.01.14,1.33.43.33.28.5.67.5,1.16,0,.31-.08.58-.24.83-.16.25-.38.43-.67.56l1.42,2.14h-.99s-1.21-1.94-1.21-1.94c-.1.01-.22.02-.34.02h-.58s0,1.93,0,1.93h-.81ZM154.83,51.61v1.82s.63,0,.63,0c.77,0,1.15-.31,1.15-.91s-.37-.91-1.11-.91h-.67Z"></path>
        <path class="cls-1" d="M161.56,56.13c-.73.02-1.36-.23-1.89-.74-.53-.51-.79-1.15-.78-1.92-.02-.71.23-1.34.75-1.88.52-.54,1.16-.8,1.91-.79.74-.02,1.37.23,1.9.75.53.51.79,1.15.78,1.91.02.72-.23,1.34-.75,1.88-.52.54-1.16.8-1.91.79ZM161.56,55.38c.51,0,.93-.18,1.28-.54.34-.36.52-.82.52-1.38,0-.53-.16-.99-.5-1.36-.34-.37-.78-.55-1.3-.55-.51,0-.93.18-1.27.54-.34.36-.51.82-.51,1.37s.17.99.5,1.36c.33.37.76.55,1.29.55Z"></path>
        <path class="cls-1" d="M167.91,56.12c-.7,0-1.24-.19-1.62-.59-.39-.39-.58-.94-.58-1.65v-2.98s.83,0,.83,0v2.91c0,1.04.47,1.55,1.38,1.55s1.38-.52,1.38-1.56v-2.91s.84,0,.84,0v2.98c0,.71-.19,1.26-.58,1.65-.39.39-.94.59-1.65.59Z"></path>
        <path class="cls-1" d="M171.92,56v-5.12s1.58,0,1.58,0c.54,0,.98.15,1.31.44.34.3.51.69.51,1.19s-.16.89-.5,1.2c-.33.31-.77.46-1.32.46h-.77s0,1.83,0,1.83h-.81ZM172.72,51.57v1.92s.66,0,.66,0c.74,0,1.12-.32,1.11-.96,0-.31-.1-.55-.29-.72-.19-.16-.47-.24-.83-.24h-.65Z"></path>
      </g>
      <path class="cls-1" d="M152.3,37.03c-.25.41-.54.76-.9,1.07-.35.31-.76.56-1.23.75-.47.19-.99.29-1.58.29-.83,0-1.54-.17-2.13-.52-.59-.35-1.08-.79-1.46-1.33-.38-.54-.65-1.13-.82-1.77-.17-.64-.26-1.24-.26-1.8s.08-1.17.25-1.78c.17-.61.44-1.17.81-1.68.38-.5.86-.92,1.45-1.26.59-.33,1.3-.5,2.13-.5.58,0,1.11.09,1.58.27.47.18.87.42,1.21.71.34.3.62.64.83,1.02.2.36.34.72.42,1.09h5.76c-.2-1.04-.55-1.99-1.04-2.87-.49-.88-1.15-1.65-1.96-2.31-.82-.66-1.79-1.17-2.92-1.55-1.13-.38-2.43-.56-3.89-.56-1.71,0-3.19.26-4.45.77-1.26.51-2.3,1.19-3.11,2.06-.81.87-1.42,1.87-1.81,3-.4,1.14-.59,2.33-.59,3.59s.2,2.44.61,3.6c.4,1.16,1.01,2.19,1.83,3.08.82.89,1.86,1.6,3.12,2.13,1.26.53,2.75.79,4.45.79,1.48,0,2.78-.2,3.91-.6,1.13-.4,2.1-.94,2.9-1.63.81-.69,1.45-1.49,1.94-2.41.49-.92.83-1.89,1.03-2.92h-5.51c-.14.44-.33.86-.57,1.27Z"></path>
      <path class="cls-1" d="M174.57,24.82v3.96s.01,2.76.01,2.76h-4.63c-2.05.01-3.74,1.49-4.1,3.43v-3.41s-.01-2.76-.01-2.76v-3.96s-5.24.01-5.24.01l.04,17.88h5.23s0-4.53,0-4.53v-.83c0-.81.59-1.54,1.4-1.62.05,0,.1,0,.16,0l7.18-.02v2.45s.01,4.52.01,4.52h5.23s-.04-17.89-.04-17.89h-5.23Z"></path>
      <g>
        <path class="cls-1" d="M36.41,8.58l2.3-8.58-10.44.02c-2.04,0-3.98.99-5.19,2.64l-12.14,16.56c1.43-.71,13.95-6.87,25-10.16.23-.07.41-.25.47-.48Z"></path>
        <path class="cls-1" d="M17.52,20.68h.16c.13-.02,12.72-1.02,24.76-1.05,1.93,0,3.77.02,5.47.06h.02c.26,0,.5-.13.64-.35l5.9-9.22.02-.04-6.72-2.6c-1.05-.41-2.15-.61-3.28-.61-1.53,0-3.05.4-4.39,1.15-8.61,4.82-22.45,12.56-22.45,12.56l-.14.08Z"></path>
        <path class="cls-1" d="M52.75,32.07l-23.82-4.32c1.6.97,14.15,8.63,24.25,17.56.13.11.29.17.46.17h0c.11,0,.23-.03.33-.09l7.75-4.27-2.38-4.32c-1.38-2.5-3.78-4.23-6.59-4.74Z"></path>
        <path class="cls-1" d="M50.81,20.43c-8.87,1.27-23.71,3.4-25.62,3.67,2.06.42,19.15,3.96,30.34,6.97.21.06.43,0,.6-.12l6.59-5.16c-.85-.72-2.1-1.8-3.36-2.87-1.96-1.68-4.46-2.6-7.05-2.6-.5,0-1.01.04-1.51.11Z"></path>
        <path class="cls-1" d="M51.4,45.88c-5.75-3.78-13.17-8.66-15.46-10.17,1.11,1.51,9.63,13.21,15.98,24.32l2.19-5.02c1.44-3.31.31-7.15-2.71-9.13Z"></path>
        <path class="cls-1" d="M36.34,42.16c.72,2.38,2.42,7.97,3.65,14.64.48,2.62,2.77,4.51,5.44,4.51v.04s0-.04,0-.04h3.56s-12.97-20.2-12.97-20.2c.06.21.17.58.31,1.05Z"></path>
        <path class="cls-1" d="M20.86,51.01c.19,5.05,3.84,6.68,5.58,6.68.12,0,.22,0,.31-.02-2.94-7.83-5.42-16.63-5.84-18.13-.03,1.3-.13,7.96-.05,11.48Z"></path>
        <path class="cls-1" d="M23.69,38.52c-1.23-2.3-3.02-3.09-3.45-3.24,2.44,3.92,4.81,12.75,5,13.57,0,0,.91-5.71-1.55-10.32Z"></path>
        <path class="cls-1" d="M29.67,30.9c-2.93-4.22-8.19-7.33-15.62-9.27-3-.78-5.74-1.2-7.51-1.41-.06,0-.13-.01-.19-.01-.86,0-1.56.7-1.56,1.56v4.52c.01.35.27.65.62.69,2.38.26,14.48,1.88,18.63,7.84,2.79,4,3.5,8.99,4.32,14.76.19,1.31.4,2.79.64,4.27.71,4.33,4.4,7.47,8.78,7.49-1.45-4.34-2.06-8.6-2.64-12.72-.91-6.36-1.76-12.37-5.48-17.71Z"></path>
        <path class="cls-1" d="M17.55,33.44c-1.46-1.41-3.21-2.36-5.07-3.09-2.53-.99-5.14-1.58-7.87-1.59-.44,0-.84.04-.97.56-.34,1.28-.67,2.57-.08,3.87.33.74.22,1.39-.15,2.14-1.09,2.2-2.2,4.41-3.07,6.7-.89,2.33-.03,3.39,2.43,3.39h.08c1.81,0,1.48.59,1.26,1.77-.18.93,1.18,1.46,1.18,1.46,0,0-1.35.74-.57,1.63.06.06.23.29.39.49.16.21.25.47.26.73.06,1.6-.01,3.64.43,4.98.52,1.58,1.77,2.26,3.33,2.18.89-.05,1.22-.2,2.08-.46,2.43-.73,4.85-1.48,6.94-3.02.8-.58,1.17-1.26,1.16-2.29-.05-5.41-.07-10.32-.02-15.73.02-1.58-.68-2.71-1.74-3.73Z"></path>
      </g>
    </g>
  </g>
</svg>
