<svg xmlns="http://www.w3.org/2000/svg" viewBox="0 0 429.53 79.01"><defs><style>.cls-1{fill:#878785;}.cls-2{fill:#da291c;fill-rule:evenodd;}</style></defs><g id="Layer_2" data-name="Layer 2"><g id="Flint_Group_Logo" data-name="Flint Group  Logo"><path class="cls-1" d="M265.94,63.87h-5.25l-.19-7.42c-5.37,5.78-12.58,7.42-19.46,7.42-8.44,0-13.84-3-17.23-9.72-3.17-6.51-3.15-14-1.19-22C226.68,15.63,239.41,0,258,0c12,0,18.63,6.65,18.79,17.93l-7.88,1.84c.38-7.89-4.83-13.16-13.08-13.16-14.22,0-21.77,13.61-24.61,25.17-1.33,5.41-1.9,11.83-.53,16.68,1.53,5.32,6.22,9,12.46,9,9.72,0,17.4-5.77,19.75-15.31l.85-3.48H248.09l1.63-6.61h23.75Z"/><path class="cls-1" d="M290.57,16.67,288,27.33h.19C292,21,296.58,16.67,304.1,16.67l2.62.18L305.23,23h-1.46c-5.51,0-10,2.66-13.82,7.33a20.5,20.5,0,0,0-4.8,9.24l-5.74,24.23h-7.15l11.15-47.11Z"/><path class="cls-1" d="M300.36,40.13c3.18-12.93,13.55-23.46,27.58-23.46,13.66,0,17.24,11.26,14.21,23.55-3.2,13-13.41,23.65-27.54,23.65-13.94,0-17.28-11.46-14.25-23.74M329.1,51.22a27.58,27.58,0,0,0,5.1-11.09c1.08-4.41,1.94-8.33.48-12.09a9.07,9.07,0,0,0-8.74-5.51c-4.49,0-9.16,2.57-12.17,6.61a30.77,30.77,0,0,0-5.43,11c-1,4.21-1.47,8.24-.35,11.91s4.51,5.87,8.73,5.87c4.77,0,9.14-2.48,12.38-6.69"/><path class="cls-1" d="M370,63.87l2.18-9.19H372a19.48,19.48,0,0,1-16.26,9.19c-4.59,0-8.58-1.65-10.64-5.22-2.17-3.85-1.18-9.13,0-13.9l6.65-28.08h7.15l-6.65,28.08c-.65,2.66-1.55,6.1-.77,8.49a6.69,6.69,0,0,0,6.44,4.4c3.86,0,7.58-1.74,10.8-4.77A23.25,23.25,0,0,0,375.4,41l5.75-24.28h7.15l-11.18,47.2Z"/><path class="cls-1" d="M386.51,79H380l14.76-62.34h6.51l-2.13,9h.19c3.89-6.15,9.77-9,16.73-9,13,0,15.12,11.47,12.48,22.63a39.35,39.35,0,0,1-7.66,15.86c-4.47,5.14-10.49,8.71-16.81,8.71s-10.25-2.37-12.15-7.69Zm7.93-33.54a9.7,9.7,0,0,0,9.45,12.35c3.95,0,8.2-2.38,10.94-5.68,3-3.58,4.55-8.44,5.57-12.57,1.87-7.61,2-17.24-7.6-17.24-6.32,0-12.83,5.54-15.54,11.31Z"/><path class="cls-2" d="M126.48,16.67h19.35l-2.24,9.09a13.27,13.27,0,0,1,5.75-5.93,26.81,26.81,0,0,1,12.83-3.16c9.45,0,15.56,4.59,15.29,11.58a26,26,0,0,1-.75,4.79l-7.22,30.83h-21L154.73,37a29.44,29.44,0,0,0,.71-3.65c.1-2.58-1.53-3.92-4.91-3.92-4.27,0-7.07,2.49-8.28,7.57l-6.39,26.9H115.31Z"/><polygon class="cls-2" points="117.14 16.67 105.97 63.87 84.43 63.87 95.6 16.66 117.14 16.67"/><polygon class="cls-2" points="121.08 0 118.14 12.45 96.6 12.45 99.55 0 121.08 0"/><polygon class="cls-2" points="90.72 0 75.61 63.87 54.57 63.87 69.69 0 90.72 0"/><polygon class="cls-2" points="54.82 25.67 51.53 39.55 27.5 39.55 21.71 63.87 0 63.87 15.12 0 64.06 0 60.66 14.37 33.45 14.37 30.75 25.67 54.82 25.67"/><path class="cls-2" d="M204.77,28h11.64l2.71-11.34H207.45l3.11-13.13H190.33l-9.72,40.9a39.29,39.29,0,0,0-1.29,7.09,10.33,10.33,0,0,0,2.83,7.95c2.91,3.16,6.91,4.4,14,4.4a72.92,72.92,0,0,0,12.06-1.11l2.9-12.24a38.24,38.24,0,0,1-5.68.52c-3.38,0-5.32-1.25-5.23-3.46a15.59,15.59,0,0,1,.68-3.15Z"/></g></g></svg>