<svg id="Ebene_1" data-name="Ebene 1" xmlns="http://www.w3.org/2000/svg" viewBox="0 0 552.08 117.8"><defs><style>.cls-1{fill:#048;}.cls-2{fill:#909cc4;}</style></defs><title>SYM_ALL_LOG_SERTO-RGB</title><path class="cls-1" d="M849.91,371.75a9,9,0,1,1,9,9A9,9,0,0,1,849.91,371.75Zm15.83,0a6.85,6.85,0,1,0-6.85,6.85A6.69,6.69,0,0,0,865.74,371.75Zm-4.81.61c1.65-.11,2.54-.81,2.54-2.54,0-2.47-1.48-2.86-3.63-2.86h-4.53v9.35h2.08v-3.95h1.45l2.09,3.95h2.27Zm-3.54-1.4V368.6h2c1.15,0,2.11.14,2.11.95,0,1.18-.59,1.41-1.63,1.41Z" transform="translate(-319.11 -362.44)"/><path class="cls-1" d="M837.06,362.44C827.67,368.75,812.7,382,808,387.7c-5.1,6.15-8.69,13-8.69,16.68,0,10.68,30.51-13.06,30.52,8.3,0,14.37-11.72,39.33-27.31,58.13a111.64,111.64,0,0,1-8.68,9.41l0,0h43.18l34.13-59Z" transform="translate(-319.11 -362.44)"/><path class="cls-2" d="M769.06,480.24l-33.86-59,33.86-58.8h48.06a113.51,113.51,0,0,0-11.47,12.13c-15.32,18.48-27,42.65-27,55.56,0,21.89,29.41-3.68,29.42,9.51,0,4.35-3.59,11.84-8.7,18C793.68,464.46,778,476.4,769.06,480.24Z" transform="translate(-319.11 -362.44)"/><path class="cls-1" d="M681.46,454.94c-10.42,0-13.7-.25-15.52-.54a30.47,30.47,0,0,1-17-8.37c-7-7-9.66-16.84-9.47-24.43.17-6.55,1.79-17.14,10.45-24.54,9.08-7.74,15.66-8.45,31.7-8.37,16-.08,22.61.63,31.69,8.37,8.66,7.4,10.28,18,10.45,24.54.19,7.63-2.45,17.52-9.59,24.54A29.92,29.92,0,0,1,699.47,454C697,454.52,692.82,454.94,681.46,454.94Zm-8-51.24A19,19,0,0,0,660,409.94a18.36,18.36,0,0,0-3,19.15A18,18,0,0,0,672.61,440h18.33a18.81,18.81,0,0,0,12-6c4.85-5.1,5.92-13.7,2.86-20a18.79,18.79,0,0,0-14.29-10.28Z" transform="translate(-319.11 -362.44)"/><path class="cls-1" d="M634.72,390.14H571c-3,0-6.36,3.14-6.36,7a7.26,7.26,0,0,0,7.25,7.25H592.8a1.38,1.38,0,0,1,1.37,1.38v0h0v40.26a8.34,8.34,0,0,0,16.67,0V405.81h0v0a1.38,1.38,0,0,1,1.37-1.38h21.62a7.25,7.25,0,0,0,7.25-7.25C641.08,393.28,637.72,390.14,634.72,390.14Z" transform="translate(-319.11 -362.44)"/><path class="cls-1" d="M540.27,427.75c3.31,0,7.7-.05,11.13-1.26a13.9,13.9,0,0,0,5.35-3.41,17.71,17.71,0,0,0,4.57-7.78,24.58,24.58,0,0,0,.87-6.95,16.13,16.13,0,0,0-1.52-7.4c-1.69-3.32-3.32-5.81-6.26-7.56a23.18,23.18,0,0,0-9.49-3.18,7.5,7.5,0,0,0-.82,0H494.19a8.92,8.92,0,0,0-5.9,2.23,7.68,7.68,0,0,0-2.23,5.39V446.4c0,4.21,3.92,7.63,8.13,7.63a7.84,7.84,0,0,0,7.87-7.63V406.07h0v0a1.38,1.38,0,0,1,1.37-1.38h37.72a4.29,4.29,0,0,1,4.5,4.67c0,2.78-1.65,4.79-6.67,4.79H518.91a7.86,7.86,0,0,0-6.68,4.18c-1.34,2.43-1.68,6.2-.61,8.32a12.39,12.39,0,0,0,3.45,4.1l34.83,21.91a7.78,7.78,0,0,0,4.11,1.25,7.67,7.67,0,0,0,4-14.13L539.62,428.7C539.4,428.56,539.33,427.74,540.27,427.75Z" transform="translate(-319.11 -362.44)"/><path class="cls-1" d="M472,438.29H420.63a1.38,1.38,0,0,1-1.27-1.38h0v-7h0v0a1.38,1.38,0,0,1,1.27-1.37h47.73a7.25,7.25,0,0,0,7.25-7.25c0-3.87-3.36-7-6.36-7H420.63a1.38,1.38,0,0,1-1.27-1.37v0h0v-7h0v0a1.39,1.39,0,0,1,1.37-1.38h48.86a7.25,7.25,0,0,0,7.25-7.25c0-3.88-3.36-7-6.36-7H410.94a8.77,8.77,0,0,0-5.59,2.23,7.67,7.67,0,0,0-2.24,5.39V445c0,4.11,3.74,7.46,7.83,7.61h60.17a7.26,7.26,0,0,0,7.25-7.25C478.36,441.43,475,438.29,472,438.29Z" transform="translate(-319.11 -362.44)"/><path class="cls-1" d="M374,438.29H328c-3,0-6.36,3.14-6.36,7a7.26,7.26,0,0,0,7.25,7.25h45.66c14,0,20.41-8.9,20.41-19.26,0-4.77-2-19.09-17.32-19.09H340.82a5,5,0,0,1-5.08-5,4.7,4.7,0,0,1,5.08-4.8h45a7.25,7.25,0,0,0,7.25-7.25,7.34,7.34,0,0,0-7-7H339.72c-15.73,0-20.61,10.9-20.61,19.47,0,6.42,2.24,18.88,21,18.88h33.41a4.83,4.83,0,0,1,4.92,4.82C378.45,435.64,376.83,438.29,374,438.29Z" transform="translate(-319.11 -362.44)"/></svg>