<svg xmlns="http://www.w3.org/2000/svg" width="221" height="57" viewBox="0 0 221 57" fill="none"><path fill-rule="evenodd" clip-rule="evenodd" d="M56.0373 29.605C56.0373 14.8624 46.116 1.14062 28.1765 1.14062C12.0683 1.14062 0.355469 13.9379 0.355469 29.4522C0.355469 36.8718 3.22993 43.608 7.91189 48.6402C6.38309 44.8379 6.14421 40.6258 7.85615 36.5422C12.9601 24.4282 31.7676 20.843 36.553 35.1355C36.8317 35.9715 37.6439 41.2367 38.0978 41.3492C37.7474 41.2528 37.5802 39.0824 36.991 41.2367C34.005 49.5324 31.68 47.5067 31.7039 47.2656C31.7198 47.2897 34.8729 42.9409 33.5989 44.2592C37.3254 38.8975 30.613 31.4378 33.2884 36.1322C34.212 37.5229 34.1563 44.428 31.7357 44.9987C30.5015 45.7945 31.6481 43.182 30.4458 43.9457C29.8725 45.0228 27.5156 46.3411 26.4486 46.2608C25.4374 46.0919 27.2767 44.9826 26.3371 45.1675C23.4945 45.5936 20.8669 40.9312 23.9245 39.7335C24.5535 39.9586 24.4978 40.1595 23.9404 40.8669C22.0613 41.8155 25.4692 45.8588 28.2322 42.9971C30.9952 40.5695 28.8612 35.3686 24.5615 34.7014C20.7634 33.6805 15.8027 37.9087 15.8266 42.4585C15.1976 51.2366 25.8594 55.2478 32.3409 52.6835C39.9451 49.6771 43.1778 38.9296 40.16 31.6066C38.5755 27.7642 33.5751 23.6806 29.3947 23.0536C24.88 22.3864 17.7058 23.2224 13.6529 25.433C8.62055 27.5632 11.9011 25.2481 15.5877 22.8687C14.3695 23.6484 14.1465 23.1501 12.9362 23.9298C12.6974 23.4877 14.8154 21.0198 20.6439 19.4765L16.3283 20.6662C14.8313 20.8912 16.1451 20.1437 16.0496 19.798C17.5226 19.372 18.9957 18.962 18.9638 18.7932L18.7807 18.0536C17.5863 18.4073 15.3887 18.9459 13.8599 19.5729C13.5255 19.7256 13.1751 19.8864 12.8486 20.0713C13.1273 19.9025 13.4777 19.7337 13.8599 19.5729C14.8711 19.1067 15.7231 18.8334 15.6992 18.7369L15.4603 18.0295C18.4861 16.7273 23.3671 16.3254 26.6477 16.3012L26.6636 15.7466C23.2875 15.3768 18.3667 16.3736 15.2692 17.4909C16.798 16.88 16.7582 16.6951 16.6706 16.3414C21.4481 14.5006 26.7193 15.1357 31.879 15.5215C30.183 15.1839 28.4313 15.0392 26.7193 14.8141C30.3104 13.6807 39.1647 17.1694 42.8514 21.3655C49.5638 27.5069 52.1994 39.0261 47.6846 48.2865C47.2785 49.1787 46.8008 50.0147 46.2673 50.8507C52.2949 45.69 56.0293 37.2657 56.0293 28.6886V29.613L56.0373 29.605Z" fill="#F9C014"></path><path fill-rule="evenodd" clip-rule="evenodd" d="M70.2263 13.0946C69.86 13.0946 69.5097 13.1991 69.1673 13.4001C68.8169 13.585 68.5064 13.8663 68.2198 14.22C67.9411 14.5737 67.7261 14.9757 67.5748 15.4097C67.4235 15.8599 67.3439 16.31 67.3439 16.7682C67.3439 17.2264 67.4235 17.6686 67.5748 18.1267C67.7261 18.5769 67.9411 18.9628 68.2198 19.3164C68.4984 19.6701 68.8169 19.9515 69.1673 20.1524C69.5176 20.3373 69.86 20.4338 70.2263 20.4338H81.8038C82.9822 20.4338 84.1129 20.7393 85.156 21.318C86.215 21.9048 87.1466 22.7087 87.927 23.7135C88.7073 24.7183 89.3363 25.8919 89.7822 27.2344C90.244 28.5929 90.4829 30.0318 90.4829 31.5752C90.4829 33.1186 90.252 34.5253 89.7822 35.8597C89.3363 37.2182 88.7073 38.4079 87.911 39.4127C87.1148 40.4497 86.1832 41.2535 85.1401 41.8243C84.097 42.4271 82.9822 42.7165 81.7879 42.7165H64.4376C63.506 42.7165 62.7973 42.3468 62.2957 41.6072C61.7781 40.8516 61.5312 39.9995 61.5312 38.9947C61.5312 37.9899 61.7781 37.1057 62.2957 36.3822C62.7973 35.6587 63.5059 35.297 64.4216 35.297H81.7879C82.5841 35.297 83.2609 34.9272 83.8263 34.2118C84.3916 33.4723 84.6703 32.6041 84.6703 31.5832C84.6703 30.5141 84.4075 29.6057 83.8581 28.9225C83.3087 28.2231 82.616 27.8855 81.7799 27.8855H70.2024C69.024 27.8855 67.9092 27.58 66.8661 27.0013C65.8071 26.4144 64.8914 25.6267 64.0952 24.6058C63.2989 23.5849 62.6699 22.4113 62.2081 21.0528C61.7622 19.7103 61.5312 18.2875 61.5312 16.7843C61.5312 15.2811 61.7622 13.8503 62.2081 12.5159C62.6699 11.1734 63.2989 9.98374 64.0952 8.96285C64.8914 7.95804 65.8071 7.15419 66.8661 6.56738C67.9092 5.98057 69.024 5.69922 70.2183 5.69922H87.5686C88.5003 5.69922 89.2089 6.06899 89.7106 6.80049C90.2281 7.54004 90.475 8.40819 90.475 9.39693C90.475 10.4821 90.2122 11.3744 89.6628 12.0577C89.1134 12.7651 88.4206 13.1107 87.5766 13.1107H70.2263V13.0946Z" fill="#F9C014"></path><path fill-rule="evenodd" clip-rule="evenodd" d="M101.289 13.0873C100.923 13.0873 100.556 13.1837 100.214 13.3847C99.8637 13.5857 99.5531 13.8751 99.2665 14.2207C99.0037 14.5744 98.7728 14.9763 98.6215 15.4265C98.4702 15.8766 98.3906 16.3348 98.3906 16.785V31.5919C98.3906 32.0421 98.4702 32.4922 98.6215 32.9504C98.7728 33.4006 99.0037 33.8025 99.2665 34.1562C99.5452 34.5099 99.8637 34.7912 100.214 34.9922C100.564 35.1932 100.923 35.2736 101.289 35.2736H118.671C119.603 35.2736 120.311 35.6433 120.813 36.3829C121.331 37.0983 121.577 37.9745 121.577 38.9954C121.577 40.0163 121.331 40.8523 120.813 41.5918C120.319 42.3474 119.603 42.7172 118.671 42.7172H101.289C100.095 42.7172 98.9798 42.4198 97.9208 41.833C96.8777 41.2462 95.9461 40.4423 95.1499 39.4214C94.3536 38.4166 93.7246 37.2269 93.2627 35.8845C92.8168 34.542 92.5859 33.1192 92.5859 31.6V16.793C92.5859 15.2657 92.8168 13.8429 93.2627 12.5085C93.7246 11.1661 94.3616 9.97638 95.1499 8.95549C95.9461 7.95068 96.8777 7.14683 97.9208 6.56002C98.9798 5.97321 100.095 5.67578 101.289 5.67578H127.35C128.282 5.67578 128.975 6.04555 129.492 6.80117C129.986 7.54071 130.257 8.40887 130.257 9.39761C130.257 10.4667 129.994 11.359 129.444 12.0584C128.895 12.7416 128.202 13.0953 127.35 13.0953H101.289V13.0873ZM118.655 20.4425H104.155C103.24 20.4425 102.531 20.8123 102.014 21.5518C101.52 22.3074 101.249 23.1756 101.249 24.1643C101.249 25.2335 101.512 26.1257 102.061 26.8251C102.611 27.5084 103.303 27.8621 104.155 27.8621H118.655C119.499 27.8621 120.2 27.5084 120.725 26.8251C121.275 26.1177 121.554 25.2335 121.554 24.1643C121.554 23.1756 121.291 22.3074 120.789 21.5518C120.272 20.8123 119.563 20.4425 118.647 20.4425H118.655Z" fill="#F9C014"></path><path fill-rule="evenodd" clip-rule="evenodd" d="M148.847 5.66797C149.778 5.66797 150.487 6.03774 150.989 6.79336C151.506 7.5329 151.753 8.40106 151.753 9.3898C151.753 10.4589 151.49 11.3512 150.941 12.0505C150.391 12.7338 149.699 13.0875 148.855 13.0875H140.16V39.0117C140.16 40.1853 139.881 41.0856 139.3 41.7448C138.718 42.3959 138.042 42.7174 137.261 42.7174C136.481 42.7174 135.82 42.3959 135.239 41.7448C134.658 41.0937 134.363 40.1853 134.363 39.0117V13.0875H125.668C124.824 13.0875 124.123 12.7338 123.582 12.0505C123.032 11.3512 122.77 10.4589 122.77 9.3898C122.77 8.40106 123.032 7.5329 123.534 6.79336C124.051 6.03774 124.76 5.66797 125.676 5.66797H148.871H148.847Z" fill="#F9C014"></path><path fill-rule="evenodd" clip-rule="evenodd" d="M161.039 42.7087C159.861 42.7087 158.73 42.4032 157.687 41.8164C156.628 41.2296 155.712 40.4177 154.916 39.3968C154.104 38.392 153.491 37.1942 153.021 35.8518C152.559 34.5094 152.328 33.0785 152.328 31.5512V16.7121C152.328 15.1848 152.559 13.754 153.021 12.4115C153.491 11.0691 154.096 9.8794 154.916 8.85048C155.712 7.84566 156.62 7.04181 157.687 6.44696C158.73 5.86015 159.861 5.55469 161.039 5.55469H178.445C179.361 5.55469 180.069 5.92446 180.571 6.68008C181.089 7.41962 181.336 8.28778 181.336 9.28455C181.336 10.3617 181.073 11.2459 180.523 11.9533C179.974 12.6446 179.297 12.9903 178.453 12.9903H161.047C160.681 12.9903 160.315 13.0948 159.972 13.2958C159.622 13.4967 159.327 13.7861 159.041 14.1318C158.762 14.4855 158.547 14.8874 158.38 15.3375C158.228 15.7877 158.149 16.2459 158.149 16.6961V31.5351C158.149 31.9853 158.228 32.4435 158.38 32.8936C158.547 33.3438 158.762 33.7457 159.041 34.0994C159.327 34.4531 159.622 34.7345 159.972 34.9435C160.322 35.1444 160.689 35.2329 161.047 35.2329H178.453C179.369 35.2329 180.077 35.6026 180.579 36.3422C181.097 37.0656 181.344 37.9338 181.344 38.9627C181.344 39.9916 181.097 40.8277 180.579 41.5672C180.085 42.3228 179.369 42.6926 178.453 42.6926H161.047L161.039 42.7087Z" fill="#F9C014"></path><path fill-rule="evenodd" clip-rule="evenodd" d="M202.479 5.57812C203.658 5.57812 204.78 5.86751 205.831 6.45432C206.874 7.04113 207.806 7.84498 208.602 8.87391C209.399 9.8948 210.012 11.0765 210.473 12.4189C210.935 13.7774 211.166 15.2083 211.166 16.7195V31.5827C211.166 33.0939 210.935 34.5248 210.473 35.8833C210.012 37.2257 209.399 38.3993 208.602 39.4283C207.806 40.4492 206.874 41.2611 205.831 41.8318C204.788 42.4347 203.658 42.7241 202.479 42.7241H190.902C189.691 42.7241 188.577 42.4347 187.518 41.8318C186.474 41.2611 185.559 40.4572 184.778 39.4443C183.982 38.4395 183.369 37.2579 182.907 35.9154C182.461 34.573 182.23 33.1261 182.23 31.5827V16.7195C182.23 15.2083 182.461 13.7774 182.907 12.4189C183.369 11.0765 183.998 9.8948 184.778 8.87391C185.575 7.84498 186.506 7.04113 187.565 6.45432C188.608 5.86751 189.723 5.57812 190.902 5.57812H202.479ZM188.027 31.5586C188.027 32.5795 188.306 33.4557 188.871 34.1791C189.437 34.9187 190.113 35.2724 190.91 35.2724H202.471C202.837 35.2724 203.188 35.1759 203.53 34.9669C203.881 34.7659 204.191 34.4766 204.462 34.1229C204.748 33.7692 204.963 33.3672 205.123 32.9332C205.274 32.483 205.354 32.0248 205.354 31.5586V16.7275C205.354 16.2533 205.274 15.8031 205.123 15.3529C204.955 14.9189 204.74 14.5169 204.462 14.1472C204.199 13.7935 203.881 13.5282 203.53 13.3192C203.18 13.1182 202.837 13.0137 202.471 13.0137H190.91C190.113 13.0137 189.437 13.3674 188.871 14.107C188.306 14.8304 188.027 15.6986 188.027 16.7275V31.5586Z" fill="#F9C014"></path><path fill-rule="evenodd" clip-rule="evenodd" d="M64.5271 53.0784H69.2568L67.0751 48.199H66.685L64.5192 53.0784H64.5271ZM61.8517 56.2938L65.8887 47.2344H67.8793L71.9322 56.2938H70.6821L69.639 53.9787H64.1131L63.0939 56.2938H61.8438H61.8517Z" fill="#555555"></path><path fill-rule="evenodd" clip-rule="evenodd" d="M75.8633 47.2346H77.0815V53.1751C77.0815 53.7619 77.1214 54.1638 77.193 54.3969C77.2726 54.63 77.4 54.8149 77.5832 54.9516C77.7822 55.0963 78.0132 55.2008 78.2839 55.2651C78.5546 55.3213 79.0244 55.3535 79.6853 55.3535H80.8319C81.5007 55.3535 81.9705 55.3213 82.2492 55.2651C82.5279 55.2008 82.7588 55.1043 82.9579 54.9516C83.141 54.8149 83.2684 54.63 83.3401 54.3969C83.4117 54.1638 83.4516 53.7538 83.4516 53.167V47.2266H84.6698V53.2956C84.6698 54.4532 84.3911 55.257 83.8417 55.7152C83.2923 56.1734 82.3209 56.3985 80.9274 56.3985H79.6057C78.2122 56.3985 77.2408 56.1734 76.6914 55.7152C76.142 55.257 75.8633 54.4532 75.8633 53.2956V47.2266V47.2346Z" fill="#555555"></path><path fill-rule="evenodd" clip-rule="evenodd" d="M88.2734 48.199V47.2344H96.443V48.199H92.9634V56.2938H91.7451V48.199H88.2734Z" fill="#555555"></path><path fill-rule="evenodd" clip-rule="evenodd" d="M104.773 48.0694H104.096C103.332 48.0694 102.791 48.1016 102.472 48.1739C102.154 48.2463 101.883 48.3588 101.652 48.5196C101.437 48.6723 101.286 48.8813 101.198 49.1385C101.111 49.4038 101.063 49.8459 101.063 50.481V53.0452C101.063 53.6803 101.111 54.1224 101.198 54.3796C101.286 54.6369 101.437 54.8459 101.652 54.9986C101.883 55.1594 102.154 55.2799 102.472 55.3443C102.791 55.4166 103.332 55.4488 104.096 55.4488H104.773C105.538 55.4488 106.087 55.4166 106.406 55.3443C106.732 55.2799 107.003 55.1594 107.234 54.9986C107.441 54.8459 107.592 54.6449 107.68 54.3957C107.767 54.1465 107.807 53.6964 107.807 53.0452V50.4649C107.807 49.8298 107.759 49.3797 107.672 49.1144C107.584 48.8491 107.433 48.6482 107.218 48.4955C106.995 48.3347 106.724 48.2221 106.406 48.1578C106.087 48.0935 105.538 48.0614 104.773 48.0614V48.0694ZM99.8127 50.2318C99.8127 49.0742 100.099 48.2704 100.681 47.8122C101.254 47.354 102.281 47.1289 103.754 47.1289H105.132C106.621 47.1289 107.648 47.354 108.213 47.8041C108.778 48.2543 109.065 49.0662 109.065 50.2318V53.3025C109.065 54.4681 108.77 55.2719 108.197 55.7301C107.616 56.1883 106.597 56.4134 105.124 56.4134H103.746C102.273 56.4134 101.254 56.1883 100.673 55.7301C100.091 55.2719 99.8047 54.4681 99.8047 53.3025V50.2318H99.8127Z" fill="#555555"></path><path fill-rule="evenodd" clip-rule="evenodd" d="M125.562 53.3429H126.781V53.5117C126.781 54.0503 126.829 54.4442 126.932 54.7014C127.028 54.9586 127.187 55.1355 127.418 55.24C127.593 55.3204 127.864 55.3766 128.23 55.4088C128.596 55.4409 129.353 55.457 130.499 55.457C131.12 55.457 131.598 55.4249 131.94 55.3606C132.283 55.2882 132.538 55.1837 132.705 55.031C132.8 54.9506 132.864 54.8139 132.912 54.621C132.952 54.4281 132.976 54.1628 132.976 53.8332C132.976 53.158 132.896 52.74 132.729 52.5632C132.57 52.3944 132.243 52.2899 131.757 52.2577L128.389 52.0407C127.378 51.9764 126.685 51.7673 126.295 51.4137C125.905 51.06 125.714 50.4651 125.714 49.6291C125.714 49.0986 125.777 48.6806 125.905 48.359C126.032 48.0375 126.239 47.7722 126.526 47.5632C126.741 47.4024 127.051 47.2899 127.45 47.2176C127.848 47.1532 128.548 47.1211 129.552 47.1211H129.942C131.065 47.1211 131.853 47.1693 132.307 47.2577C132.769 47.3462 133.143 47.4989 133.453 47.7159C133.66 47.8606 133.82 48.0696 133.923 48.3429C134.027 48.6163 134.074 48.9458 134.074 49.3558C134.074 49.4683 134.074 49.5648 134.074 49.6291C134.074 49.6934 134.074 49.7497 134.066 49.7979H132.848V49.5728C132.848 49.2433 132.824 48.986 132.777 48.8092C132.729 48.6323 132.657 48.5037 132.554 48.4153C132.402 48.2867 132.132 48.1983 131.741 48.15C131.351 48.1018 130.619 48.0696 129.528 48.0696C128.437 48.0696 127.696 48.1741 127.41 48.3831C127.123 48.5921 126.98 49.0182 126.98 49.6452C126.98 50.1677 127.075 50.5214 127.266 50.7223C127.458 50.9233 127.816 51.0358 128.357 51.076L131.797 51.3092C132.697 51.3735 133.326 51.5825 133.684 51.9281C134.043 52.2738 134.226 52.8526 134.226 53.6644C134.226 54.2593 134.178 54.7014 134.082 54.9988C133.987 55.2963 133.836 55.5454 133.621 55.7464C133.358 55.9956 132.999 56.1644 132.554 56.2689C132.108 56.3654 131.296 56.4216 130.109 56.4216H129.568C128.564 56.4216 127.848 56.3815 127.434 56.293C127.012 56.2046 126.669 56.0599 126.391 55.8509C126.12 55.658 125.913 55.3927 125.785 55.0631C125.658 54.7336 125.586 54.3075 125.586 53.7931V53.3509L125.562 53.3429Z" fill="#555555"></path><path fill-rule="evenodd" clip-rule="evenodd" d="M142.873 56.2938H141.687V52.2826L137.164 47.2344H138.589L142.276 51.4626L145.955 47.2344H147.38L142.873 52.2665V56.2938Z" fill="#555555"></path><path fill-rule="evenodd" clip-rule="evenodd" d="M150.34 53.3429H151.558V53.5117C151.558 54.0503 151.606 54.4442 151.709 54.7014C151.805 54.9586 151.964 55.1355 152.195 55.24C152.37 55.3204 152.641 55.3766 153.007 55.4088C153.374 55.4409 154.13 55.457 155.277 55.457C155.898 55.457 156.375 55.4249 156.718 55.3606C157.06 55.2882 157.315 55.1837 157.482 55.031C157.578 54.9506 157.641 54.8139 157.689 54.621C157.729 54.4281 157.753 54.1628 157.753 53.8332C157.753 53.158 157.673 52.74 157.506 52.5632C157.347 52.3944 157.02 52.2899 156.535 52.2577L153.167 52.0407C152.155 51.9764 151.463 51.7673 151.072 51.4137C150.682 51.06 150.491 50.4651 150.491 49.6291C150.491 49.0986 150.555 48.6806 150.682 48.359C150.81 48.0375 151.017 47.7722 151.303 47.5632C151.518 47.4024 151.829 47.2899 152.227 47.2176C152.625 47.1532 153.326 47.1211 154.329 47.1211H154.719C155.842 47.1211 156.63 47.1693 157.084 47.2577C157.546 47.3462 157.92 47.4989 158.231 47.7159C158.438 47.8606 158.597 48.0696 158.693 48.3429C158.796 48.6163 158.844 48.9458 158.844 49.3558C158.844 49.4683 158.844 49.5648 158.844 49.6291C158.844 49.6934 158.844 49.7497 158.836 49.7979H157.618V49.5728C157.618 49.2433 157.594 48.986 157.546 48.8092C157.498 48.6323 157.426 48.5037 157.323 48.4153C157.172 48.2867 156.901 48.1983 156.511 48.15C156.121 48.1018 155.388 48.0696 154.297 48.0696C153.206 48.0696 152.466 48.1741 152.179 48.3831C151.893 48.5921 151.749 49.0182 151.749 49.6452C151.749 50.1677 151.845 50.5214 152.036 50.7223C152.227 50.9233 152.585 51.0358 153.127 51.076L156.567 51.3092C157.466 51.3735 158.095 51.5825 158.454 51.9281C158.812 52.2738 158.995 52.8526 158.995 53.6644C158.995 54.2593 158.947 54.7014 158.852 54.9988C158.756 55.2963 158.605 55.5454 158.39 55.7464C158.127 55.9956 157.769 56.1644 157.323 56.2689C156.877 56.3654 156.065 56.4216 154.878 56.4216H154.337C153.334 56.4216 152.617 56.3815 152.203 56.293C151.781 56.2046 151.439 56.0599 151.16 55.8509C150.889 55.658 150.682 55.3927 150.555 55.0631C150.427 54.7336 150.356 54.3075 150.356 53.7931V53.3509L150.34 53.3429Z" fill="#555555"></path><path fill-rule="evenodd" clip-rule="evenodd" d="M162.414 48.199V47.2344H170.592V48.199H167.104V56.2938H165.886V48.199H162.414Z" fill="#555555"></path><path fill-rule="evenodd" clip-rule="evenodd" d="M174.312 56.2938V47.2344H181.972V48.199H175.515V51.1652H181.789V52.0816H175.515V55.3452H181.972V56.2938H174.312Z" fill="#555555"></path><path fill-rule="evenodd" clip-rule="evenodd" d="M186.469 56.2938V47.2344H188.451L192.194 55.305L195.904 47.2344H197.903V56.2938H196.701V48.0865L192.926 56.2938H191.445L187.671 48.0865V56.2938H186.469Z" fill="#555555"></path><path fill-rule="evenodd" clip-rule="evenodd" d="M202.812 53.3429H204.031V53.5117C204.031 54.0503 204.079 54.4442 204.182 54.7014C204.278 54.9586 204.437 55.1355 204.668 55.24C204.843 55.3204 205.114 55.3766 205.48 55.4088C205.846 55.4409 206.603 55.457 207.749 55.457C208.37 55.457 208.848 55.4249 209.19 55.3606C209.533 55.2882 209.788 55.1837 209.955 55.031C210.05 54.9506 210.114 54.8139 210.162 54.621C210.202 54.4281 210.226 54.1628 210.226 53.8332C210.226 53.158 210.146 52.74 209.979 52.5632C209.82 52.3944 209.493 52.2899 209.007 52.2577L205.639 52.0407C204.628 51.9764 203.935 51.7673 203.545 51.4137C203.155 51.06 202.964 50.4651 202.964 49.6291C202.964 49.0986 203.027 48.6806 203.155 48.359C203.282 48.0375 203.489 47.7722 203.776 47.5632C203.991 47.4024 204.301 47.2899 204.7 47.2176C205.098 47.1532 205.798 47.1211 206.802 47.1211H207.192C208.315 47.1211 209.103 47.1693 209.557 47.2577C210.019 47.3462 210.393 47.4989 210.703 47.7159C210.91 47.8606 211.07 48.0696 211.173 48.3429C211.277 48.6163 211.324 48.9458 211.324 49.3558C211.324 49.4683 211.324 49.5648 211.324 49.6291C211.324 49.6934 211.324 49.7497 211.316 49.7979H210.098V49.5728C210.098 49.2433 210.074 48.986 210.027 48.8092C209.979 48.6323 209.907 48.5037 209.804 48.4153C209.652 48.2867 209.382 48.1983 208.991 48.15C208.601 48.1018 207.869 48.0696 206.778 48.0696C205.687 48.0696 204.946 48.1741 204.66 48.3831C204.373 48.5921 204.23 49.0182 204.23 49.6452C204.23 50.1677 204.325 50.5214 204.516 50.7223C204.708 50.9233 205.066 51.0358 205.607 51.076L209.047 51.3092C209.947 51.3735 210.576 51.5825 210.934 51.9281C211.293 52.2738 211.476 52.8526 211.476 53.6644C211.476 54.2593 211.428 54.7014 211.332 54.9988C211.237 55.2963 211.086 55.5454 210.871 55.7464C210.608 55.9956 210.249 56.1644 209.804 56.2689C209.358 56.3654 208.546 56.4216 207.359 56.4216H206.818C205.814 56.4216 205.098 56.3815 204.684 56.293C204.27 56.2046 203.919 56.0599 203.641 55.8509C203.37 55.658 203.163 55.3927 203.035 55.0631C202.908 54.7336 202.836 54.3075 202.836 53.7931V53.3509L202.812 53.3429Z" fill="#555555"></path><path d="M214.18 6.72772V1.61523H216.425C216.879 1.61523 217.221 1.66347 217.452 1.75189C217.683 1.84031 217.874 2.00912 218.018 2.2342C218.161 2.46732 218.225 2.72455 218.225 3.0059C218.225 3.36763 218.105 3.67309 217.874 3.92229C217.643 4.17148 217.285 4.33225 216.799 4.39656C216.975 4.48498 217.11 4.56537 217.205 4.65379C217.404 4.83867 217.588 5.06375 217.763 5.32902L218.639 6.71968H217.795L217.126 5.6586C216.927 5.35314 216.767 5.12002 216.64 4.95121C216.513 4.79044 216.401 4.6779 216.298 4.6136C216.194 4.54929 216.099 4.50106 215.995 4.47694C215.916 4.46087 215.796 4.45283 215.621 4.45283H214.849V6.71968H214.18V6.72772ZM214.849 3.87405H216.29C216.592 3.87405 216.831 3.8419 217.006 3.77759C217.182 3.71328 217.309 3.60878 217.397 3.47213C217.484 3.33547 217.532 3.18274 217.532 3.01393C217.532 2.77278 217.444 2.57182 217.269 2.41908C217.094 2.26635 216.823 2.18597 216.449 2.18597H214.849V3.87405Z" fill="#555555"></path><path d="M216.226 8.34397C213.949 8.34397 212.094 6.471 212.094 4.17198C212.094 1.87297 213.949 0 216.226 0C218.504 0 220.359 1.87297 220.359 4.17198C220.359 6.471 218.504 8.34397 216.226 8.34397ZM216.226 0.361733C214.148 0.361733 212.452 2.0659 212.452 4.17198C212.452 6.27807 214.14 7.98223 216.226 7.98223C218.312 7.98223 220.001 6.27807 220.001 4.17198C220.001 2.0659 218.312 0.361733 216.226 0.361733Z" fill="#555555"></path></svg>